<mxfile host="app.diagrams.net" modified="2023-03-08T05:17:32.649Z" agent="5.0 (Windows NT 10.0; Win64; x64) AppleWebKit/537.36 (KHTML, like Gecko) Chrome/110.0.0.0 Safari/537.36" etag="pAHKKiR0ve6pkY5PhWm-" version="21.0.2" type="github">
  <diagram name="페이지-1" id="5ykfcSqWC5qqxle36J96">
    <mxGraphModel dx="2261" dy="788" grid="1" gridSize="10" guides="1" tooltips="1" connect="1" arrows="1" fold="1" page="1" pageScale="1" pageWidth="827" pageHeight="1169" math="0" shadow="0">
      <root>
        <mxCell id="0" />
        <mxCell id="1" parent="0" />
        <mxCell id="NFUyQ9nt1NOkiIaxk9wh-4" value="Publisher" style="whiteSpace=wrap;html=1;aspect=fixed;" vertex="1" parent="1">
          <mxGeometry x="820" y="400" width="80" height="80" as="geometry" />
        </mxCell>
        <mxCell id="NFUyQ9nt1NOkiIaxk9wh-7" value="Author" style="whiteSpace=wrap;html=1;aspect=fixed;" vertex="1" parent="1">
          <mxGeometry x="-90" y="340" width="80" height="80" as="geometry" />
        </mxCell>
        <mxCell id="NFUyQ9nt1NOkiIaxk9wh-10" value="" style="edgeStyle=orthogonalEdgeStyle;rounded=0;orthogonalLoop=1;jettySize=auto;html=1;" edge="1" parent="1" source="NFUyQ9nt1NOkiIaxk9wh-8" target="NFUyQ9nt1NOkiIaxk9wh-9">
          <mxGeometry relative="1" as="geometry" />
        </mxCell>
        <mxCell id="NFUyQ9nt1NOkiIaxk9wh-8" value="Book" style="whiteSpace=wrap;html=1;aspect=fixed;" vertex="1" parent="1">
          <mxGeometry x="360" y="160" width="80" height="80" as="geometry" />
        </mxCell>
        <mxCell id="NFUyQ9nt1NOkiIaxk9wh-9" value="" style="ellipse;whiteSpace=wrap;html=1;" vertex="1" parent="1">
          <mxGeometry x="360" width="80" height="80" as="geometry" />
        </mxCell>
      </root>
    </mxGraphModel>
  </diagram>
</mxfile>
